<svg  viewBox="0 0 40 40" fill="none" xmlns="http://www.w3.org/2000/svg">
<g clip-path="url(#clip0_146_49)">
<path d="M16.7 39.8C7.2 38.1 0 29.9 0 20C0 9 9 0 20 0C31 0 40 9 40 20C40 29.9 32.8 38.1 23.3 39.8L22.2 38.9H17.8L16.7 39.8Z" fill="url(#paint0_linear_146_49)"/>
<path d="M27.7998 25.6L28.6998 20H23.3998V16.1C23.3998 14.5 23.9998 13.3 26.3998 13.3H28.9998V8.2C27.5998 8 25.9998 7.8 24.5998 7.8C19.9998 7.8 16.7998 10.6 16.7998 15.6V20H11.7998V25.6H16.7998V39.7C17.8998 39.9 18.9998 40 20.0998 40C21.1998 40 22.2998 39.9 23.3998 39.7V25.6H27.7998Z" fill="white"/>
</g>
<defs>
<linearGradient id="paint0_linear_146_49" x1="20.001" y1="38.6089" x2="20.001" y2="-0.00736777" gradientUnits="userSpaceOnUse">
<stop stop-color="#0062E0"/>
<stop offset="1" stop-color="#19AFFF"/>
</linearGradient>
<clipPath id="clip0_146_49">
<rect width="40" height="40" fill="white"/>
</clipPath>
</defs>
</svg>
