<svg  viewBox="0 0 22 22" fill="none" xmlns="http://www.w3.org/2000/svg">
<path d="M11.4682 21.2486C5.82868 21.2486 1.24043 16.6603 1.24043 11.0208C1.24043 5.38136 5.82868 0.793103 11.4682 0.793103C17.1077 0.793103 21.6959 5.38136 21.6959 11.0208C21.6959 16.6603 17.1077 21.2486 11.4682 21.2486ZM11.4682 1.68247C6.31873 1.68247 2.1298 5.8714 2.1298 11.0208C2.1298 16.1703 6.31873 20.3592 11.4682 20.3592C16.6176 20.3592 20.8065 16.1703 20.8065 11.0208C20.8065 5.8714 16.6176 1.68247 11.4682 1.68247Z" fill="currentColor"/>
<path fill-rule="evenodd" clip-rule="evenodd" d="M11.4682 21.5486C5.663 21.5486 0.94043 16.826 0.94043 11.0208C0.94043 5.21567 5.663 0.493103 11.4682 0.493103C17.2733 0.493103 21.9959 5.21567 21.9959 11.0208C21.9959 16.826 17.2733 21.5486 11.4682 21.5486ZM11.4682 1.98247C6.48441 1.98247 2.4298 6.03708 2.4298 11.0208C2.4298 16.0046 6.48441 20.0592 11.4682 20.0592C16.4519 20.0592 20.5065 16.0046 20.5065 11.0208C20.5065 6.03708 16.4519 1.98247 11.4682 1.98247ZM1.24043 11.0208C1.24043 16.6603 5.82868 21.2486 11.4682 21.2486C17.1077 21.2486 21.6959 16.6603 21.6959 11.0208C21.6959 5.38136 17.1077 0.793103 11.4682 0.793103C5.82868 0.793103 1.24043 5.38136 1.24043 11.0208ZM2.1298 11.0208C2.1298 5.8714 6.31873 1.68247 11.4682 1.68247C16.6176 1.68247 20.8065 5.8714 20.8065 11.0208C20.8065 16.1703 16.6176 20.3592 11.4682 20.3592C6.31873 20.3592 2.1298 16.1703 2.1298 11.0208Z" fill="currentColor"/>
<path d="M16.8047 16.8017C16.5593 16.8017 16.3601 16.6025 16.3601 16.3571C16.3601 13.6596 14.166 11.4655 11.4685 11.4655C8.77108 11.4655 6.57701 13.6596 6.57701 16.3571C6.57701 16.6025 6.37779 16.8017 6.13233 16.8017C5.88686 16.8017 5.68764 16.6025 5.68764 16.3571C5.68764 13.1696 8.28104 10.5762 11.4685 10.5762C14.656 10.5762 17.2494 13.1696 17.2494 16.3571C17.2494 16.6025 17.0502 16.8017 16.8047 16.8017Z" fill="currentColor"/>
<path fill-rule="evenodd" clip-rule="evenodd" d="M16.8047 17.1017C16.3936 17.1017 16.0601 16.7682 16.0601 16.3571C16.0601 13.8253 14.0003 11.7655 11.4685 11.7655C8.93677 11.7655 6.87701 13.8253 6.87701 16.3571C6.87701 16.7682 6.54348 17.1017 6.13233 17.1017C5.72117 17.1017 5.38764 16.7682 5.38764 16.3571C5.38764 13.0039 8.11535 10.2762 11.4685 10.2762C14.8217 10.2762 17.5494 13.0039 17.5494 16.3571C17.5494 16.7682 17.2159 17.1017 16.8047 17.1017ZM16.3601 16.3571C16.3601 16.6025 16.5593 16.8017 16.8047 16.8017C17.0502 16.8017 17.2494 16.6025 17.2494 16.3571C17.2494 13.1696 14.656 10.5762 11.4685 10.5762C8.28104 10.5762 5.68764 13.1696 5.68764 16.3571C5.68764 16.6025 5.88686 16.8017 6.13233 16.8017C6.37779 16.8017 6.57701 16.6025 6.57701 16.3571C6.57701 13.6596 8.77108 11.4655 11.4685 11.4655C14.166 11.4655 16.3601 13.6596 16.3601 16.3571Z" fill="currentColor"/>
<path d="M11.4682 9.6868C9.75174 9.6868 8.35543 8.29049 8.35543 6.57401C8.35543 4.85753 9.75174 3.46122 11.4682 3.46122C13.1847 3.46122 14.581 4.85753 14.581 6.57401C14.581 8.29049 13.1847 9.6868 11.4682 9.6868ZM11.4682 4.35059C10.2427 4.35059 9.2448 5.34846 9.2448 6.57401C9.2448 7.79956 10.2427 8.79743 11.4682 8.79743C12.6938 8.79743 13.6916 7.79956 13.6916 6.57401C13.6916 5.34846 12.6938 4.35059 11.4682 4.35059Z" fill="currentColor"/>
<path fill-rule="evenodd" clip-rule="evenodd" d="M11.4682 9.9868C9.58605 9.9868 8.05543 8.45618 8.05543 6.57401C8.05543 4.69184 9.58605 3.16122 11.4682 3.16122C13.3504 3.16122 14.881 4.69184 14.881 6.57401C14.881 8.45618 13.3504 9.9868 11.4682 9.9868ZM11.4682 4.65059C10.4084 4.65059 9.5448 5.51414 9.5448 6.57401C9.5448 7.63387 10.4084 8.49743 11.4682 8.49743C12.5281 8.49743 13.3916 7.63387 13.3916 6.57401C13.3916 5.51414 12.5281 4.65059 11.4682 4.65059ZM8.35543 6.57401C8.35543 8.29049 9.75174 9.6868 11.4682 9.6868C13.1847 9.6868 14.581 8.29049 14.581 6.57401C14.581 4.85753 13.1847 3.46122 11.4682 3.46122C9.75174 3.46122 8.35543 4.85753 8.35543 6.57401ZM9.2448 6.57401C9.2448 5.34846 10.2427 4.35059 11.4682 4.35059C12.6938 4.35059 13.6916 5.34846 13.6916 6.57401C13.6916 7.79956 12.6938 8.79743 11.4682 8.79743C10.2427 8.79743 9.2448 7.79956 9.2448 6.57401Z" fill="currentColor"/>
</svg>
