<svg viewBox="0 0 15 18" fill="currentColor" xmlns="http://www.w3.org/2000/svg">
<path d="M9.85054 1.09367C9.78966 1.03768 9.70341 0.999919 9.61844 0.999919C9.60068 0.999919 9.58166 0.999919 9.5639 1.00643H1.77405C1.56605 1.00643 1.36946 1.09497 1.22868 1.2395C1.08663 1.38403 1.00039 1.57935 1.00039 1.7994V16.207C1.00039 16.427 1.08663 16.6223 1.22741 16.7668C1.3682 16.9114 1.55844 16.9999 1.77278 16.9999C5.70829 16.9999 9.3001 16.9999 13.2153 16.9999C13.4297 16.9999 13.6199 16.9114 13.7607 16.7668C13.9015 16.6223 13.9877 16.427 13.9877 16.207V5.62492C13.9941 5.59367 14.0004 5.56893 14.0004 5.53638C14.0004 5.42961 13.9509 5.33455 13.8837 5.26554L9.89366 1.11971C9.88098 1.10669 9.87463 1.10148 9.86322 1.09497H9.85054V1.09367ZM7.15288 11.9049V7.3619C7.15288 7.16789 7.30507 7.01164 7.49912 7.01164C7.6881 7.01164 7.84537 7.16789 7.84537 7.3619V11.901L9.43327 10.4778C9.57405 10.3502 9.79093 10.3619 9.91522 10.5064C10.0395 10.651 10.0281 10.8697 9.88732 10.9973L7.72868 12.9322C7.59551 13.052 7.39893 13.0481 7.27083 12.9283L5.116 10.996C4.97522 10.8684 4.95873 10.6497 5.0881 10.5051C5.21239 10.3606 5.42927 10.3489 5.57005 10.4765L7.15795 11.8997L7.15288 11.9049ZM9.26839 1.71737V4.82023C9.26839 5.1158 9.38507 5.38664 9.57532 5.58195C9.76556 5.77726 10.0294 5.89705 10.3173 5.89705H13.2838V16.2083C13.2838 16.2278 13.2775 16.2525 13.2597 16.2642C13.247 16.2773 13.2293 16.289 13.2052 16.289C10.089 16.289 4.79893 16.289 1.76771 16.289C1.74868 16.289 1.72459 16.2825 1.71317 16.2642C1.70049 16.2512 1.68907 16.2265 1.68907 16.2083V1.7994C1.68907 1.77466 1.69542 1.75513 1.71317 1.74341C1.72585 1.73039 1.74361 1.71867 1.76771 1.71867H9.26839V1.71737ZM9.96088 4.82023V2.22127L12.8107 5.18481H10.316C10.2183 5.18481 10.1321 5.14054 10.0649 5.07804C10.004 5.01424 9.96088 4.92049 9.96088 4.82023Z" fill="currentColor"/>
<path fill-rule="evenodd" clip-rule="evenodd" d="M9.86322 1.09497H9.85054V1.09367C9.78966 1.03768 9.70341 0.999919 9.61844 0.999919C9.60068 0.999919 9.58166 0.999919 9.5639 1.00643H1.77405C1.56605 1.00643 1.36946 1.09497 1.22868 1.2395C1.08663 1.38403 1.00039 1.57935 1.00039 1.7994V16.207C1.00039 16.427 1.08663 16.6223 1.22741 16.7668C1.3682 16.9114 1.55844 16.9999 1.77278 16.9999H13.2153C13.4297 16.9999 13.6199 16.9114 13.7607 16.7668C13.9015 16.6223 13.9877 16.427 13.9877 16.207V5.62492C13.9886 5.62036 13.9896 5.61594 13.9905 5.61162C13.9958 5.58629 14.0004 5.56418 14.0004 5.53638C14.0004 5.42961 13.9509 5.33455 13.8837 5.26554L9.89366 1.11971C9.88098 1.10669 9.87463 1.10148 9.86322 1.09497ZM13.9555 5.19594C13.9556 5.19599 13.9555 5.19588 13.9555 5.19594C14.0366 5.27927 14.1004 5.39814 14.1004 5.53638C14.1004 5.5754 14.0934 5.60834 14.0881 5.6335C14.088 5.63408 14.0878 5.63465 14.0877 5.63523V16.207C14.0877 16.4541 13.9906 16.6742 13.8323 16.8366C13.674 16.9991 13.4585 17.0999 13.2153 17.0999H1.77278C1.52962 17.0999 1.31406 16.9991 1.15578 16.8366C0.99753 16.6742 0.900391 16.4541 0.900391 16.207V1.7994C0.900391 1.55223 0.997572 1.33199 1.15736 1.16941C1.31597 1.00657 1.53768 0.906429 1.77405 0.906429H9.54976C9.57731 0.899771 9.60248 0.899863 9.6156 0.899911C9.61662 0.899915 9.61757 0.899919 9.61844 0.899919C9.71743 0.899919 9.81406 0.937758 9.8884 0.994971H9.88973L9.91276 1.00811C9.93496 1.02077 9.94863 1.03283 9.96529 1.04994L13.9555 5.19594ZM7.15288 11.8951V7.3619C7.15288 7.16789 7.30507 7.01164 7.49912 7.01164C7.6881 7.01164 7.84537 7.16789 7.84537 7.3619V11.901L9.43327 10.4778C9.57405 10.3502 9.79093 10.3619 9.91522 10.5064C10.0395 10.651 10.0281 10.8697 9.88732 10.9973L7.72868 12.9322C7.59551 13.052 7.39893 13.0481 7.27083 12.9283L5.116 10.996C4.97522 10.8684 4.95873 10.6497 5.0881 10.5051C5.21239 10.3606 5.42927 10.3489 5.57005 10.4765L7.15288 11.8951ZM5.63721 10.4024C5.63728 10.4025 5.63713 10.4023 5.63721 10.4024L7.05288 11.6712V7.3619C7.05288 7.11418 7.24834 6.91164 7.49912 6.91164C7.74389 6.91164 7.94537 7.11322 7.94537 7.3619V11.677L9.36611 10.4037C9.36618 10.4036 9.36604 10.4038 9.36611 10.4037C9.54795 10.2391 9.82959 10.2535 9.99104 10.4412C10.1499 10.6259 10.1364 10.9066 9.95448 11.0714L7.79556 13.0066M5.63721 10.4024C5.45561 10.238 5.17448 10.2521 5.01292 10.4392C4.84633 10.6261 4.869 10.9071 5.04884 11.0701L7.20333 13.0021C7.369 13.1563 7.62379 13.161 7.79556 13.0066M13.2597 16.2642C13.2775 16.2525 13.2838 16.2278 13.2838 16.2083V5.89705H10.3173C10.0294 5.89705 9.76556 5.77726 9.57532 5.58195C9.38507 5.38664 9.26839 5.1158 9.26839 4.82023V1.71867H1.76771C1.74361 1.71867 1.72585 1.73039 1.71317 1.74341C1.69542 1.75513 1.68907 1.77466 1.68907 1.7994V16.2083C1.68907 16.2265 1.70049 16.2512 1.71317 16.2642C1.72459 16.2825 1.74868 16.289 1.76771 16.289H13.2052C13.2293 16.289 13.247 16.2773 13.2597 16.2642ZM9.16839 1.81867H1.78907V16.189H13.1838V5.99705H10.3173C10.0011 5.99705 9.71185 5.86543 9.50368 5.65172C9.29557 5.43807 9.16839 5.14233 9.16839 4.82023V1.81867ZM13.1838 16.2082C13.1838 16.2084 13.1838 16.2082 13.1838 16.2082ZM10.0609 2.46953V4.82023C10.0609 4.89153 10.0916 4.9601 10.1352 5.00689C10.1886 5.05573 10.2508 5.08481 10.316 5.08481H12.5758L10.0609 2.46953ZM9.96088 4.82023C9.96088 4.92049 10.004 5.01424 10.0649 5.07804C10.1321 5.14054 10.2183 5.18481 10.316 5.18481H12.8107L9.96088 2.22127V4.82023Z" fill="currentColor"/>
</svg>
