<svg viewBox="0 0 19 19" fill="none" xmlns="http://www.w3.org/2000/svg">
<path d="M18.8144 17.9189L12.8573 11.9618C13.9226 10.6951 14.5667 9.06363 14.5667 7.28333C14.5667 3.26737 11.2993 0 7.28333 0C3.26737 0 0 3.26737 0 7.28333C0 11.2993 3.26737 14.5667 7.28333 14.5667C9.06363 14.5667 10.6951 13.9226 11.9618 12.8573L17.9189 18.8144C18.0424 18.9379 18.2045 19 18.3667 19C18.5288 19 18.6909 18.9379 18.8144 18.8144C19.0621 18.5668 19.0621 18.1665 18.8144 17.9189ZM7.28333 13.3C3.96593 13.3 1.26667 10.6007 1.26667 7.28333C1.26667 3.96593 3.96593 1.26667 7.28333 1.26667C10.6007 1.26667 13.3 3.96593 13.3 7.28333C13.3 10.6007 10.6007 13.3 7.28333 13.3Z" fill="currentColor"/>
</svg>
