<svg width="24" height="24" viewBox="0 0 24 24" fill="none" xmlns="http://www.w3.org/2000/svg">
<circle cx="12" cy="12" r="12" fill="white"/>
<g clip-path="url(#clip0_398_165)">
<path d="M13.4462 7.06445C13.4088 7.02596 13.3557 7 13.3034 7C13.2925 7 13.2808 7 13.2699 7.00448H8.4761C8.3481 7.00448 8.22712 7.06535 8.14049 7.16471C8.05307 7.26408 8 7.39836 8 7.54964V17.4548C8 17.6061 8.05307 17.7404 8.13971 17.8398C8.22634 17.9391 8.34341 18 8.47532 18C10.8972 18 13.1075 18 15.5169 18C15.6488 18 15.7659 17.9391 15.8525 17.8398C15.9391 17.7404 15.9922 17.6061 15.9922 17.4548V10.1797C15.9961 10.1582 16 10.1412 16 10.1188C16 10.0454 15.9696 9.98006 15.9282 9.93262L13.4728 7.08236C13.465 7.0734 13.4611 7.06982 13.454 7.06535H13.4462V7.06445ZM11.7861 14.4972V11.3739C11.7861 11.2405 11.8798 11.1331 11.9992 11.1331C12.1155 11.1331 12.2123 11.2405 12.2123 11.3739V14.4945L13.1895 13.516C13.2761 13.4283 13.4096 13.4364 13.486 13.5357C13.5625 13.6351 13.5555 13.7855 13.4689 13.8732L12.1405 15.2035C12.0585 15.2858 11.9376 15.2831 11.8587 15.2008L10.5327 13.8723C10.446 13.7846 10.4359 13.6342 10.5155 13.5348C10.592 13.4355 10.7255 13.4274 10.8121 13.5151L11.7893 14.4936L11.7861 14.4972ZM13.088 7.49325V9.62647C13.088 9.82967 13.1598 10.0159 13.2769 10.1501C13.394 10.2844 13.5563 10.3668 13.7335 10.3668H15.559V17.4557C15.559 17.4692 15.5551 17.4862 15.5442 17.4942C15.5364 17.5032 15.5255 17.5112 15.5106 17.5112C13.593 17.5112 10.3376 17.5112 8.4722 17.5112C8.46049 17.5112 8.44566 17.5068 8.43863 17.4942C8.43083 17.4853 8.4238 17.4683 8.4238 17.4557V7.54964C8.4238 7.53263 8.42771 7.51921 8.43863 7.51115C8.44644 7.5022 8.45737 7.49414 8.4722 7.49414H13.0849H13.088V7.49325ZM13.5141 9.62647V7.83968L15.2679 9.87712H13.7327C13.6726 9.87712 13.6195 9.84668 13.5781 9.80371C13.5407 9.75985 13.5141 9.69539 13.5141 9.62647Z" fill="black"/>
</g>
<defs>
<clipPath id="clip0_398_165">
<rect width="8" height="11" fill="white" transform="translate(8 7)"/>
</clipPath>
</defs>
</svg>
