<svg viewBox="0 0 17 17" fill="none" xmlns="http://www.w3.org/2000/svg">
<path d="M8.5 11.6875C9.34538 11.6875 10.1561 11.3517 10.7539 10.7539C11.3517 10.1561 11.6875 9.34538 11.6875 8.5C11.6875 7.65462 11.3517 6.84387 10.7539 6.2461C10.1561 5.64832 9.34538 5.3125 8.5 5.3125C7.65462 5.3125 6.84387 5.64832 6.2461 6.2461C5.64832 6.84387 5.3125 7.65462 5.3125 8.5C5.3125 9.34538 5.64832 10.1561 6.2461 10.7539C6.84387 11.3517 7.65462 11.6875 8.5 11.6875ZM8.5 12.75C7.37283 12.75 6.29183 12.3022 5.4948 11.5052C4.69777 10.7082 4.25 9.62717 4.25 8.5C4.25 7.37283 4.69777 6.29183 5.4948 5.4948C6.29183 4.69777 7.37283 4.25 8.5 4.25C9.62717 4.25 10.7082 4.69777 11.5052 5.4948C12.3022 6.29183 12.75 7.37283 12.75 8.5C12.75 9.62717 12.3022 10.7082 11.5052 11.5052C10.7082 12.3022 9.62717 12.75 8.5 12.75ZM0.53125 7.96875H2.65625C2.79715 7.96875 2.93227 8.02472 3.0319 8.12435C3.13153 8.22398 3.1875 8.3591 3.1875 8.5C3.1875 8.6409 3.13153 8.77602 3.0319 8.87565C2.93227 8.97528 2.79715 9.03125 2.65625 9.03125H0.53125C0.390354 9.03125 0.255228 8.97528 0.1556 8.87565C0.0559708 8.77602 0 8.6409 0 8.5C0 8.3591 0.0559708 8.22398 0.1556 8.12435C0.255228 8.02472 0.390354 7.96875 0.53125 7.96875ZM14.3438 7.96875H16.4688C16.6096 7.96875 16.7448 8.02472 16.8444 8.12435C16.944 8.22398 17 8.3591 17 8.5C17 8.6409 16.944 8.77602 16.8444 8.87565C16.7448 8.97528 16.6096 9.03125 16.4688 9.03125H14.3438C14.2029 9.03125 14.0677 8.97528 13.9681 8.87565C13.8685 8.77602 13.8125 8.6409 13.8125 8.5C13.8125 8.3591 13.8685 8.22398 13.9681 8.12435C14.0677 8.02472 14.2029 7.96875 14.3438 7.96875ZM7.96875 16.4688V14.3438C7.96875 14.2029 8.02472 14.0677 8.12435 13.9681C8.22398 13.8685 8.3591 13.8125 8.5 13.8125C8.6409 13.8125 8.77602 13.8685 8.87565 13.9681C8.97528 14.0677 9.03125 14.2029 9.03125 14.3438V16.4688C9.03125 16.6096 8.97528 16.7448 8.87565 16.8444C8.77602 16.944 8.6409 17 8.5 17C8.3591 17 8.22398 16.944 8.12435 16.8444C8.02472 16.7448 7.96875 16.6096 7.96875 16.4688ZM7.96875 2.65625V0.53125C7.96875 0.390354 8.02472 0.255228 8.12435 0.1556C8.22398 0.0559708 8.3591 0 8.5 0C8.6409 0 8.77602 0.0559708 8.87565 0.1556C8.97528 0.255228 9.03125 0.390354 9.03125 0.53125V2.65625C9.03125 2.79715 8.97528 2.93227 8.87565 3.0319C8.77602 3.13153 8.6409 3.1875 8.5 3.1875C8.3591 3.1875 8.22398 3.13153 8.12435 3.0319C8.02472 2.93227 7.96875 2.79715 7.96875 2.65625ZM13.7594 14.5102L12.2563 13.0078C12.2056 12.9588 12.1652 12.9002 12.1375 12.8353C12.1097 12.7705 12.0951 12.7008 12.0945 12.6303C12.094 12.5598 12.1075 12.4899 12.1342 12.4247C12.161 12.3594 12.2004 12.3001 12.2503 12.2503C12.3002 12.2005 12.3595 12.1611 12.4248 12.1344C12.49 12.1077 12.56 12.0943 12.6305 12.0949C12.701 12.0955 12.7707 12.1102 12.8355 12.138C12.9002 12.1658 12.9588 12.2063 13.0078 12.257L14.5102 13.7587C14.6071 13.8588 14.6608 13.993 14.6597 14.1323C14.6586 14.2717 14.6028 14.405 14.5043 14.5036C14.4058 14.6022 14.2726 14.6582 14.1332 14.6594C13.9939 14.6606 13.8596 14.607 13.7594 14.5102ZM3.99218 4.74371L2.48977 3.24062C2.43759 3.19198 2.39574 3.13333 2.36672 3.06817C2.3377 3.00301 2.3221 2.93267 2.32085 2.86135C2.3196 2.79003 2.33272 2.71918 2.35944 2.65304C2.38616 2.5869 2.42593 2.52682 2.47637 2.47638C2.52681 2.42594 2.58689 2.38618 2.65303 2.35946C2.71917 2.33274 2.79001 2.31961 2.86133 2.32086C2.93265 2.32212 3.00299 2.33772 3.06816 2.36674C3.13332 2.39576 3.19197 2.43761 3.24061 2.48979L4.7437 3.99216C4.79436 4.0412 4.83475 4.09984 4.86252 4.16466C4.89029 4.22947 4.90488 4.29917 4.90543 4.36968C4.90599 4.44019 4.8925 4.5101 4.86576 4.57535C4.83902 4.64059 4.79956 4.69986 4.74967 4.74969C4.69979 4.79953 4.64048 4.83894 4.57521 4.86562C4.50994 4.8923 4.44002 4.90572 4.36951 4.9051C4.299 4.90447 4.22932 4.88982 4.16453 4.86199C4.09974 4.83416 4.04117 4.79442 3.99218 4.74371ZM14.5109 3.24062L13.0078 4.74371C12.9588 4.79443 12.9002 4.83487 12.8353 4.86268C12.7705 4.89049 12.7008 4.90511 12.6302 4.90569C12.5597 4.90627 12.4898 4.89279 12.4245 4.86605C12.3592 4.83931 12.2999 4.79983 12.25 4.74993C12.2002 4.70002 12.1608 4.64069 12.1341 4.57539C12.1074 4.51009 12.094 4.44013 12.0947 4.36959C12.0953 4.29905 12.11 4.22935 12.1379 4.16454C12.1657 4.09974 12.2062 4.04114 12.257 3.99216L13.7587 2.48979C13.8594 2.39591 13.9926 2.3448 14.1302 2.34721C14.2679 2.34962 14.3992 2.40538 14.4966 2.50273C14.5939 2.60008 14.6497 2.73141 14.6521 2.86906C14.6545 3.00671 14.6034 3.13992 14.5095 3.24062H14.5109ZM4.74227 13.0078L3.24062 14.5102C3.1405 14.6072 3.00629 14.6609 2.86694 14.6598C2.72758 14.6587 2.59424 14.6028 2.49566 14.5044C2.39707 14.4059 2.34113 14.2726 2.3399 14.1332C2.33867 13.9939 2.39224 13.8596 2.48907 13.7594L3.99146 12.2563C4.04049 12.2056 4.09913 12.1651 4.16396 12.1373C4.22879 12.1095 4.29851 12.0949 4.36905 12.0943C4.43959 12.0937 4.50953 12.1072 4.57481 12.134C4.64008 12.1607 4.69938 12.2002 4.74924 12.2501C4.79909 12.3 4.83851 12.3593 4.86519 12.4246C4.89187 12.4899 4.90528 12.5599 4.90463 12.6304C4.90398 12.701 4.8893 12.7707 4.86142 12.8355C4.83355 12.9003 4.79303 12.9588 4.74227 13.0078Z" fill="currentColor"/>
</svg>
