<svg  viewBox="0 0 8 11" fill="currentColor" xmlns="http://www.w3.org/2000/svg">
<g clip-path="url(#clip0_398_161)">
<path d="M5.44624 0.0644531C5.40878 0.0259603 5.35571 0 5.30341 0C5.29249 0 5.28078 0 5.26985 0.00447591H0.476098C0.348098 0.00447591 0.227122 0.0653483 0.140488 0.164714C0.0530732 0.264079 0 0.398356 0 0.549642V10.4548C0 10.6061 0.0530732 10.7404 0.139707 10.8398C0.226341 10.9391 0.343415 11 0.475317 11C2.89717 11 5.10751 11 7.51688 11C7.64878 11 7.76585 10.9391 7.85249 10.8398C7.93912 10.7404 7.9922 10.6061 7.9922 10.4548V3.17969C7.9961 3.1582 8 3.14119 8 3.11882C8 3.04541 7.96956 2.98006 7.9282 2.93262L5.47278 0.0823568C5.46498 0.073405 5.46107 0.0698242 5.45405 0.0653483H5.44624V0.0644531ZM3.78615 7.49715V4.37386C3.78615 4.24048 3.87981 4.13306 3.99922 4.13306C4.11551 4.13306 4.21229 4.24048 4.21229 4.37386V7.49447L5.18946 6.51603C5.2761 6.4283 5.40956 6.43636 5.48605 6.53573C5.56254 6.63509 5.55551 6.78548 5.46888 6.87321L4.14049 8.20345C4.05854 8.28581 3.93756 8.28312 3.85873 8.20077L2.53268 6.87231C2.44605 6.78459 2.4359 6.6342 2.51551 6.53483C2.592 6.43547 2.72546 6.42741 2.8121 6.51514L3.78927 7.49357L3.78615 7.49715ZM5.088 0.493245V2.62647C5.088 2.82967 5.1598 3.01587 5.27688 3.15015C5.39395 3.28442 5.55629 3.36678 5.73346 3.36678H7.55902V10.4557C7.55902 10.4692 7.55512 10.4862 7.5442 10.4942C7.53639 10.5032 7.52546 10.5112 7.51063 10.5112C5.59298 10.5112 2.33756 10.5112 0.472195 10.5112C0.460488 10.5112 0.445659 10.5068 0.438634 10.4942C0.430829 10.4853 0.423805 10.4683 0.423805 10.4557V0.549642C0.423805 0.532633 0.427707 0.519206 0.438634 0.511149C0.446439 0.502197 0.457366 0.494141 0.472195 0.494141H5.08488H5.088V0.493245ZM5.51415 2.62647V0.839681L7.2679 2.87712H5.73268C5.67259 2.87712 5.61951 2.84668 5.57815 2.80371C5.54068 2.75985 5.51415 2.69539 5.51415 2.62647Z" fill="black"/>
</g>
<defs>
<clipPath id="clip0_398_161">
<rect width="8" height="11" fill="currentColor"/>
</clipPath>
</defs>
</svg>
