<svg viewBox="0 0 17 15" fill="none" xmlns="http://www.w3.org/2000/svg">
<path d="M14.3568 8.56048C14.354 8.5552 14.3492 8.55184 14.3463 8.54704C14.3333 8.52352 14.3146 8.50528 14.2978 8.48464C14.2767 8.45824 14.2565 8.43136 14.2306 8.41072C14.2119 8.39536 14.1903 8.38576 14.1692 8.37328C14.137 8.35456 14.1053 8.33728 14.0698 8.32672C14.0607 8.32384 14.054 8.31712 14.0448 8.31472C14.028 8.3104 14.0122 8.31472 13.9959 8.31232C13.9632 8.30752 13.9316 8.30512 13.8984 8.30752C13.8648 8.30944 13.8341 8.31568 13.8024 8.32432C13.7895 8.32816 13.776 8.32624 13.7631 8.33152L11.0525 9.34336C10.8039 9.436 10.6781 9.71248 10.7708 9.96064C10.8634 10.2093 11.1404 10.3346 11.3885 10.2424L13.1588 9.58192C12.2736 11.645 10.2706 13.0182 8.00501 13.0182C5.44277 13.0182 3.20213 11.249 2.55701 8.71552C2.49125 8.45872 2.22965 8.30176 1.97333 8.36896C1.71605 8.43424 1.56101 8.69584 1.62629 8.95264C2.37989 11.9114 5.00261 13.9782 8.00453 13.9782C10.6431 13.9782 12.9768 12.3914 14.0204 10.0043L14.881 11.6766C14.966 11.8422 15.134 11.9368 15.3082 11.9368C15.3821 11.9368 15.4575 11.92 15.5276 11.8835C15.7632 11.7626 15.8564 11.4731 15.7349 11.237L14.3568 8.56048Z" fill="url(#paint0_linear_154_14)"/>
<path fill-rule="evenodd" clip-rule="evenodd" d="M14.5791 8.44604L15.9572 11.1225C16.1417 11.4812 16.0006 11.9213 15.6424 12.1056C15.5349 12.1614 15.4198 12.1868 15.3082 12.1868C15.0446 12.1868 14.7885 12.0437 14.6587 11.791M14.881 11.6766L14.0204 10.0043C13.978 10.1013 13.9335 10.197 13.8869 10.2912C12.7867 12.5177 10.5359 13.9782 8.00453 13.9782C5.00261 13.9782 2.37989 11.9114 1.62629 8.95264C1.56101 8.69584 1.71605 8.43424 1.97333 8.36896C2.22965 8.30176 2.49125 8.45872 2.55701 8.71552C3.20213 11.249 5.44277 13.0182 8.00501 13.0182C10.1502 13.0182 12.06 11.787 13.0083 9.90489C13.0615 9.79925 13.1117 9.69156 13.1588 9.58192L11.3885 10.2424C11.1404 10.3346 10.8634 10.2093 10.7708 9.96064C10.6781 9.71248 10.8039 9.436 11.0525 9.34336L13.7631 8.33152C13.7703 8.32859 13.7776 8.32788 13.785 8.32717C13.7908 8.3266 13.7967 8.32603 13.8024 8.32432C13.8341 8.31568 13.8648 8.30944 13.8984 8.30752C13.9316 8.30512 13.9632 8.30752 13.9959 8.31232C14.003 8.31337 14.0101 8.31313 14.0171 8.3129C14.0262 8.31259 14.0354 8.31229 14.0448 8.31472C14.0496 8.31597 14.0537 8.3184 14.0578 8.32085C14.0616 8.32309 14.0654 8.32534 14.0698 8.32672C14.1053 8.33728 14.137 8.35456 14.1692 8.37328C14.1755 8.37702 14.1819 8.38051 14.1882 8.38397C14.203 8.39204 14.2175 8.39997 14.2306 8.41072C14.2536 8.42906 14.2721 8.45234 14.2908 8.47582C14.2931 8.47876 14.2955 8.4817 14.2978 8.48464C14.3025 8.4904 14.3073 8.49597 14.3122 8.50153C14.3246 8.51587 14.3369 8.53008 14.3463 8.54704C14.3476 8.54929 14.3494 8.55122 14.3512 8.55318C14.3532 8.55541 14.3553 8.55767 14.3568 8.56048L15.7349 11.237C15.8564 11.4731 15.7632 11.7626 15.5276 11.8835C15.4575 11.92 15.3821 11.9368 15.3082 11.9368C15.134 11.9368 14.966 11.8422 14.881 11.6766ZM14.5505 8.40182C14.5577 8.41087 14.5672 8.42395 14.5763 8.44077L14.5791 8.44604M14.1669 8.0955C14.1652 8.09466 14.1636 8.09381 14.1618 8.09295C14.1494 8.08682 14.1312 8.07894 14.1085 8.07295L14.1071 8.0726C14.0663 8.06209 14.0307 8.06241 14.0165 8.0628C13.9768 8.05766 13.9319 8.0546 13.8823 8.05804C13.8328 8.06102 13.7893 8.06951 13.7511 8.07932C13.7371 8.08088 13.7072 8.08516 13.6739 8.09795L10.9652 9.10909C10.9653 9.10907 10.9652 9.10911 10.9652 9.10909C10.587 9.2501 10.3958 9.67072 10.5365 10.0479M12.654 10.0371C11.7091 11.6991 9.95795 12.7682 8.00501 12.7682C5.56032 12.7682 3.417 11.0797 2.79928 8.65383C2.69984 8.26552 2.30345 8.02452 1.91088 8.12688C1.51998 8.22662 1.28485 8.62422 1.38399 9.01423C2.16511 12.081 4.8855 14.2282 8.00453 14.2282C10.5719 14.2282 12.8591 12.7819 14.0278 10.565L14.6587 11.791" fill="url(#paint1_linear_154_14)"/>
<path d="M8.00421 1.49729C10.4829 1.49729 12.6429 3.12257 13.3797 5.54177C13.457 5.79569 13.7253 5.93729 13.9788 5.86145C14.2322 5.78417 14.3752 5.51585 14.298 5.26241C13.4373 2.43617 10.9077 0.537292 8.00421 0.537292C5.47509 0.537292 3.23349 1.97633 2.12709 4.21313L1.34133 2.56289C1.22709 2.32289 0.940047 2.22161 0.701487 2.33585C0.461967 2.44961 0.360687 2.73617 0.474447 2.97521L1.73301 5.61713C1.73493 5.62145 1.73829 5.62433 1.74021 5.62817C1.74597 5.63921 1.75413 5.64833 1.76085 5.65937C1.78437 5.69729 1.81125 5.73137 1.84341 5.76065C1.85541 5.77169 1.86693 5.78129 1.87989 5.79137C1.92165 5.82257 1.96677 5.84849 2.01621 5.86481C2.02005 5.86625 2.02293 5.86961 2.02725 5.87057C2.02821 5.87105 2.02965 5.87057 2.03061 5.87105C2.07429 5.88401 2.11989 5.89121 2.16645 5.89121C2.16693 5.89121 2.16741 5.89121 2.16789 5.89121C2.20965 5.89121 2.25237 5.88545 2.29413 5.87393L5.02917 5.11937C5.28453 5.04929 5.43477 4.78481 5.36421 4.52945C5.29413 4.27409 5.02917 4.12289 4.77381 4.19441L2.95941 4.69505C3.89637 2.75105 5.82645 1.49729 8.00421 1.49729Z" fill="url(#paint2_linear_154_14)"/>
<path fill-rule="evenodd" clip-rule="evenodd" d="M0.474447 2.97521C0.360687 2.73617 0.461967 2.44961 0.701487 2.33585C0.940047 2.22161 1.22709 2.32289 1.34133 2.56289L2.12709 4.21313C2.17345 4.11939 2.22181 4.02706 2.2721 3.93617C3.42187 1.85825 5.58108 0.537292 8.00421 0.537292C10.9077 0.537292 13.4373 2.43617 14.298 5.26241C14.3752 5.51585 14.2322 5.78417 13.9788 5.86145C13.7253 5.93729 13.457 5.79569 13.3797 5.54177C12.6429 3.12257 10.4829 1.49729 8.00421 1.49729C5.94165 1.49729 4.10127 2.62191 3.11633 4.39241C3.06132 4.4913 3.00897 4.59221 2.95941 4.69505L4.77381 4.19441C5.02917 4.12289 5.29413 4.27409 5.36421 4.52945C5.43477 4.78481 5.28453 5.04929 5.02917 5.11937L2.29413 5.87393M5.09533 5.36046L2.36061 6.11493C2.29751 6.13234 2.23243 6.14121 2.16789 6.14121H2.16689C2.09994 6.14121 2.03502 6.13164 1.97434 6.11497C1.9717 6.11439 1.96897 6.11375 1.96616 6.11304C1.96293 6.11222 1.95955 6.11129 1.95603 6.11024C1.95025 6.10854 1.9448 6.10672 1.93967 6.10484L1.93844 6.10448C1.92931 6.10105 1.92057 6.0971 1.91371 6.09371C1.84283 6.06715 1.78187 6.03021 1.73026 5.99165L1.72637 5.98875C1.70916 5.97536 1.69239 5.9614 1.67462 5.94508C1.62298 5.89796 1.58245 5.84573 1.54963 5.79313L1.55056 5.79443C1.55057 5.79445 1.55057 5.79445 1.55056 5.79443M1.52869 5.76182C1.53641 5.77464 1.54328 5.78426 1.54642 5.78864L1.54963 5.79313C1.54922 5.79247 1.54881 5.79181 1.5484 5.79115C1.54841 5.79117 1.54838 5.79112 1.5484 5.79115C1.54962 5.79309 1.55046 5.79429 1.55056 5.79443M1.52869 5.76182C1.53303 5.76816 1.53658 5.7728 1.53744 5.77393C1.53767 5.77424 1.53829 5.77506 1.53744 5.77393L1.53382 5.76892C1.53054 5.76424 1.52472 5.75557 1.51856 5.74381L1.51657 5.73999M1.52869 5.76182C1.5277 5.76038 1.52668 5.75886 1.52564 5.75727C1.52022 5.74901 1.51338 5.73763 1.50673 5.72345L1.50731 5.72465L1.73301 5.61713C1.73404 5.61946 1.73549 5.62137 1.73691 5.62324C1.73813 5.62484 1.73932 5.6264 1.74021 5.62817C1.74351 5.6345 1.74759 5.64019 1.75174 5.64597C1.75484 5.65029 1.75798 5.65466 1.76085 5.65937M1.51856 5.74381C1.52194 5.75029 1.52539 5.75635 1.52869 5.76182ZM2.02725 5.87057C2.0248 5.87003 2.02281 5.86871 2.02084 5.86741C2.01935 5.86642 2.01787 5.86544 2.01621 5.86481M3.462 4.29703C4.42995 2.72916 6.12072 1.74729 8.00421 1.74729C10.3698 1.74729 12.4349 3.29768 13.1406 5.61461C13.2584 6.00173 13.6668 6.21577 14.0504 6.10096L14.0517 6.10058C14.4371 5.98306 14.6547 5.5751 14.5371 5.1895C13.6452 2.2606 11.0203 0.287292 8.00421 0.287292C5.548 0.287292 3.35382 1.59472 2.14114 3.66112L1.56706 2.45544C1.56706 2.45545 1.56705 2.45544 1.56706 2.45544C1.39352 2.09091 0.957284 1.93641 0.593871 2.1102C0.229463 2.28352 0.0758105 2.71934 0.248707 3.08264L1.50673 5.72345M4.70638 3.95368L3.462 4.29703ZM0.474447 2.97521L1.73301 5.61713Z" fill="url(#paint3_linear_154_14)"/>
<defs>
<linearGradient id="paint0_linear_154_14" x1="16.0382" y1="0.287292" x2="0.177734" y2="0.287292" gradientUnits="userSpaceOnUse">
<stop stop-color="#69A7E3"/>
<stop offset="1" stop-color="#555BA5"/>
</linearGradient>
<linearGradient id="paint1_linear_154_14" x1="15.7681" y1="0.852013" x2="0.447952" y2="0.852013" gradientUnits="userSpaceOnUse">
<stop stop-color="#69A7E3"/>
<stop offset="1" stop-color="#555BA5"/>
</linearGradient>
<linearGradient id="paint2_linear_154_14" x1="16.0382" y1="0.287292" x2="0.177734" y2="0.287292" gradientUnits="userSpaceOnUse">
<stop stop-color="#69A7E3"/>
<stop offset="1" stop-color="#555BA5"/>
</linearGradient>
<linearGradient id="paint3_linear_154_14" x1="14.3189" y1="0.53729" x2="0.427779" y2="0.53729" gradientUnits="userSpaceOnUse">
<stop stop-color="#69A7E3"/>
<stop offset="1" stop-color="#555BA5"/>
</linearGradient>
</defs>
</svg>
