<svg width="15" height="15" viewBox="0 0 20 20" fill="none" xmlns="http://www.w3.org/2000/svg">
<g clip-path="url(#clip0_3800_2)">
<mask id="mask0_3800_2" style="mask-type:luminance" maskUnits="userSpaceOnUse" x="0" y="0" width="20" height="20">
<path d="M20 0H0V20H20V0Z" fill="white"/>
</mask>
<g mask="url(#mask0_3800_2)">
<path d="M10 0C4.48 0 0 4.48 0 10C0 15.52 4.48 20 10 20C15.52 20 20 15.52 20 10C20 4.48 15.52 0 10 0ZM10 1.2812C14.813 1.2812 18.719 5.187 18.719 10C18.719 14.813 14.813 18.719 10 18.719C5.187 18.719 1.2812 14.813 1.2812 10C1.2812 5.187 5.187 1.2812 10 1.2812ZM10.147 3.4062C9.602 3.4092 9.08168 3.4799 8.61882 3.6125C8.14891 3.7471 7.70618 3.9609 7.33118 4.2344C7.00741 4.4706 6.69791 4.7735 6.4625 5.0875C6.04659 5.64241 5.81641 6.25259 5.75618 6.95618C5.75218 7.003 5.74918 7.043 5.75 7.04382C5.75159 7.04541 7.92018 7.3125 7.93118 7.3125C7.9365 7.3125 7.9425 7.28909 7.95941 7.21882C8.1535 6.41032 8.508 5.86668 9.05618 5.5375C9.48818 5.27809 10.037 5.17632 10.634 5.24059C10.908 5.27009 11.155 5.33659 11.372 5.44059C11.643 5.57068 11.89 5.77668 12.066 6.02191C12.22 6.2375 12.312 6.48032 12.341 6.75309C12.349 6.829 12.346 7.00109 12.338 7.075C12.315 7.25759 12.268 7.41282 12.188 7.57191C12.107 7.73159 12.04 7.82332 11.912 7.95309C11.709 8.16082 11.394 8.436 10.834 8.89382C10.474 9.18818 10.23 9.40941 10.022 9.62809C9.52768 10.146 9.30291 10.535 9.16559 11.1C9.07509 11.472 9.04 11.855 9.05 12.419C9.0525 12.559 9.05618 12.692 9.05618 12.716V12.759H11.216L11.219 12.519C11.222 12.192 11.24 11.982 11.275 11.778C11.332 11.451 11.418 11.278 11.669 10.997C11.829 10.817 12.039 10.621 12.362 10.35C12.839 9.95091 13.173 9.651 13.488 9.3375C13.979 8.84682 14.234 8.5115 14.416 8.11882C14.559 7.80959 14.638 7.50218 14.662 7.16559C14.668 7.084 14.669 6.86259 14.662 6.76882C14.617 6.0645 14.352 5.4435 13.847 4.86559C13.767 4.77468 13.569 4.57691 13.475 4.4938C12.979 4.0544 12.406 3.7585 11.719 3.5844C11.3 3.4782 10.896 3.4244 10.384 3.4094C10.306 3.4071 10.225 3.4058 10.147 3.4062ZM9.05618 13.7662V15.9662H11.256V13.7662H9.05618Z" fill="#919191"/>
</g>
</g>
<defs>
<clipPath id="clip0_3800_2">
<rect width="20" height="20" fill="white"/>
</clipPath>
</defs>
</svg>
