<svg width="17" height="9" viewBox="0 0 17 9" fill="none" xmlns="http://www.w3.org/2000/svg">
<path d="M4.67497 0.655361C4.81575 0.684892 4.97114 0.767861 5.06411 0.866299C5.19559 1.0027 5.26067 1.14192 5.28724 1.3388C5.30052 1.44005 5.29919 1.4752 5.28059 1.56942C5.25138 1.7213 5.18098 1.86755 5.08934 1.96599C5.04552 2.01239 4.57005 2.38364 3.95911 2.8477L2.90458 3.64927L9.65677 3.6563C15.9826 3.66333 16.4129 3.66474 16.4727 3.68724C16.6666 3.76036 16.8247 3.90099 16.911 4.07396C17.0624 4.37911 17.0133 4.7377 16.7875 4.97958C16.6945 5.07942 16.6201 5.13145 16.4993 5.17927L16.4222 5.2102L9.67802 5.21724L2.9338 5.22427L3.93255 6.08911C4.48239 6.56442 4.96317 6.9863 5.00036 7.02708C5.03888 7.06786 5.09067 7.14521 5.11856 7.20286C5.26731 7.51786 5.21552 7.8638 4.97911 8.11552C4.84098 8.26317 4.66966 8.33911 4.47177 8.33911C4.34028 8.33911 4.22473 8.30817 4.11317 8.24349C4.0202 8.18864 0.332001 5.00489 0.205828 4.86989C-0.00667191 4.64208 -0.0584698 4.27645 0.0823116 3.97974C0.143406 3.84755 0.240358 3.75052 0.512625 3.54239C1.95497 2.4427 4.09989 0.814267 4.16098 0.77208C4.27122 0.696142 4.38145 0.65958 4.52223 0.653955C4.58731 0.651142 4.65637 0.652548 4.67497 0.655361Z" fill="#777777"/>
</svg>
