<svg width="17" height="9" viewBox="0 0 17 9" fill="none" xmlns="http://www.w3.org/2000/svg">
<path d="M12.325 0.655361C12.1842 0.684892 12.0289 0.767861 11.9359 0.866299C11.8044 1.0027 11.7393 1.14192 11.7128 1.3388C11.6995 1.44005 11.7008 1.4752 11.7194 1.56942C11.7486 1.7213 11.819 1.86755 11.9107 1.96599C11.9545 2.01239 12.43 2.38364 13.0409 2.8477L14.0954 3.64927L7.34323 3.6563C1.01737 3.66333 0.587061 3.66474 0.527296 3.68724C0.33339 3.76036 0.175343 3.90099 0.0890145 4.07396C-0.0623918 4.37911 -0.0132511 4.7377 0.21253 4.97958C0.305499 5.07942 0.379874 5.13145 0.500733 5.17927L0.577765 5.2102L7.32198 5.21724L14.0662 5.22427L13.0675 6.08911C12.5176 6.56442 12.0368 6.9863 11.9996 7.02708C11.9611 7.06786 11.9093 7.14521 11.8814 7.20286C11.7327 7.51786 11.7845 7.8638 12.0209 8.11552C12.159 8.26317 12.3303 8.33911 12.5282 8.33911C12.6597 8.33911 12.7753 8.30817 12.8868 8.24349C12.9798 8.18864 16.668 5.00489 16.7942 4.86989C17.0067 4.64208 17.0585 4.27645 16.9177 3.97974C16.8566 3.84755 16.7596 3.75052 16.4874 3.54239C15.045 2.4427 12.9001 0.814267 12.839 0.77208C12.7288 0.696142 12.6185 0.65958 12.4778 0.653955C12.4127 0.651142 12.3436 0.652548 12.325 0.655361Z" fill="#777777"/>
</svg>
