<svg viewBox="0 0 22 22" fill="none" xmlns="http://www.w3.org/2000/svg">
<path fill-rule="evenodd" clip-rule="evenodd" d="M0.25 11C0.25 5.08579 5.08579 0.25 11 0.25C16.9142 0.25 21.75 5.08579 21.75 11C21.75 16.9142 16.9142 21.75 11 21.75C5.08579 21.75 0.25 16.9142 0.25 11ZM11 1.75C5.91421 1.75 1.75 5.91421 1.75 11C1.75 16.0858 5.91421 20.25 11 20.25C16.0858 20.25 20.25 16.0858 20.25 11C20.25 5.91421 16.0858 1.75 11 1.75Z" fill="currentColor"/>
<path fill-rule="evenodd" clip-rule="evenodd" d="M14.3603 7.63967C14.6532 7.93256 14.6532 8.40744 14.3603 8.70033L8.70033 14.3603C8.40744 14.6532 7.93256 14.6532 7.63967 14.3603C7.34678 14.0674 7.34678 13.5926 7.63967 13.2997L13.2997 7.63967C13.5926 7.34678 14.0674 7.34678 14.3603 7.63967Z" fill="currentColor"/>
<path fill-rule="evenodd" clip-rule="evenodd" d="M7.63967 7.63967C7.93256 7.34678 8.40744 7.34678 8.70033 7.63967L14.3603 13.2997C14.6532 13.5926 14.6532 14.0674 14.3603 14.3603C14.0674 14.6532 13.5926 14.6532 13.2997 14.3603L7.63967 8.70033C7.34678 8.40744 7.34678 7.93256 7.63967 7.63967Z" fill="currentColor"/>
</svg>
