<svg  viewBox="0 0 40 40" fill="none" xmlns="http://www.w3.org/2000/svg">
<path d="M37.6 20.4167C37.6 19.1167 37.4833 17.8667 37.2667 16.6667H20V23.7667H29.8667C29.4333 26.05 28.1333 27.9833 26.1833 29.2833V33.9H32.1333C35.6 30.7 37.6 26 37.6 20.4167Z" fill="#4285F4"/>
<path d="M20 38.3333C24.95 38.3333 29.1 36.7 32.1333 33.9L26.1833 29.2833C24.55 30.3833 22.4666 31.05 20 31.05C15.2333 31.05 11.1833 27.8333 9.7333 23.5H3.6333V28.2333C6.64997 34.2167 12.8333 38.3333 20 38.3333Z" fill="#34A853"/>
<path d="M9.73317 23.4833C9.3665 22.3833 9.14984 21.2167 9.14984 20C9.14984 18.7833 9.3665 17.6167 9.73317 16.5167V11.7833H3.63317C2.38317 14.25 1.6665 17.0333 1.6665 20C1.6665 22.9667 2.38317 25.75 3.63317 28.2167L8.38317 24.5167L9.73317 23.4833Z" fill="#FBBC05"/>
<path d="M20 8.96666C22.7 8.96666 25.1 9.9 27.0166 11.7L32.2666 6.45C29.0833 3.48333 24.95 1.66666 20 1.66666C12.8333 1.66666 6.64997 5.78333 3.6333 11.7833L9.7333 16.5167C11.1833 12.1833 15.2333 8.96666 20 8.96666Z" fill="#EA4335"/>
</svg>
