<svg  viewBox="0 0 22 22" fill="none" xmlns="http://www.w3.org/2000/svg">
<path fill-rule="evenodd" clip-rule="evenodd" d="M2.09467 2.09467C3.42914 0.760201 5.42603 0.25 8 0.25H14C16.574 0.25 18.5709 0.760201 19.9053 2.09467C21.2398 3.42914 21.75 5.42603 21.75 8V14C21.75 16.574 21.2398 18.5709 19.9053 19.9053C18.5709 21.2398 16.574 21.75 14 21.75H8C5.42603 21.75 3.42914 21.2398 2.09467 19.9053C0.760201 18.5709 0.25 16.574 0.25 14V8C0.25 5.42603 0.760201 3.42914 2.09467 2.09467ZM3.15533 3.15533C2.2398 4.07086 1.75 5.57397 1.75 8V14C1.75 16.426 2.2398 17.9291 3.15533 18.8447C4.07086 19.7602 5.57397 20.25 8 20.25H14C16.426 20.25 17.9291 19.7602 18.8447 18.8447C19.7602 17.9291 20.25 16.426 20.25 14V8C20.25 5.57397 19.7602 4.07086 18.8447 3.15533C17.9291 2.2398 16.426 1.75 14 1.75H8C5.57397 1.75 4.07086 2.2398 3.15533 3.15533Z" fill="currentColor"/>
<path fill-rule="evenodd" clip-rule="evenodd" d="M12.7896 6.93892C13.0829 7.2314 13.0836 7.70627 12.7911 7.99958L9.79916 11L12.7911 14.0004C13.0836 14.2937 13.0829 14.7686 12.7896 15.0611C12.4963 15.3536 12.0214 15.3529 11.7289 15.0596L8.20892 11.5296C7.91703 11.2369 7.91703 10.7631 8.20892 10.4704L11.7289 6.94042C12.0214 6.64711 12.4963 6.64644 12.7896 6.93892Z" fill="currentColor"/>
</svg>
