<svg   viewBox="0 0 13 16"   xmlns="http://www.w3.org/2000/svg">
<path d="M11.6966 3H10.8286C10.8105 3 10.7944 3.00621 10.7776 3.01028V2.09873C10.7776 1.49283 10.2734 0.999988 9.65366 0.999988H2.12372C1.50394 0.999988 0.999805 1.49283 0.999805 2.09873V12.3457C0.999805 12.9516 1.50394 13.4444 2.12372 13.4444H3.44425V13.9405C3.44425 14.5247 3.92906 15 4.5252 15H11.6966C12.2928 15 12.7776 14.5247 12.7776 13.9405V4.05945C12.7776 3.47525 12.2928 3 11.6966 3ZM1.44424 12.3457V2.09873C1.44424 1.73805 1.74915 1.44444 2.12372 1.44444H9.65366C10.0282 1.44444 10.3331 1.73805 10.3331 2.09873V12.3457C10.3331 12.7064 10.0282 13 9.65366 13H2.12372C1.74915 13 1.44424 12.7064 1.44424 12.3457ZM12.3331 13.9405C12.3331 14.2797 12.0476 14.5556 11.6966 14.5556H4.5252C4.17428 14.5556 3.88868 14.2797 3.88868 13.9405V13.4444H9.65366C10.2734 13.4444 10.7776 12.9516 10.7776 12.3457V3.43415C10.7944 3.43822 10.8105 3.44443 10.8286 3.44443H11.6966C12.0476 3.44443 12.3331 3.72025 12.3331 4.05945V13.9405Z"  fill="currentColor"/>
<path fill-rule="evenodd" clip-rule="evenodd" d="M10.9776 2.8H11.6966C12.3994 2.8 12.9776 3.36104 12.9776 4.05945V13.9405C12.9776 14.6389 12.3994 15.2 11.6966 15.2H4.5252C3.8224 15.2 3.24425 14.6389 3.24425 13.9405V13.6444H2.12372C1.39777 13.6444 0.799805 13.0663 0.799805 12.3457V2.09873C0.799805 1.37813 1.39777 0.799988 2.12372 0.799988H9.65366C10.3796 0.799988 10.9776 1.37813 10.9776 2.09873V2.8ZM10.8286 3C10.8151 3 10.8028 3.00342 10.7905 3.00685C10.7862 3.00804 10.7819 3.00923 10.7776 3.01028V2.09873C10.7776 1.49283 10.2734 0.999988 9.65366 0.999988H2.12372C1.50394 0.999988 0.999805 1.49283 0.999805 2.09873V12.3457C0.999805 12.9516 1.50394 13.4444 2.12372 13.4444H3.44425V13.9405C3.44425 14.5247 3.92906 15 4.5252 15H11.6966C12.2928 15 12.7776 14.5247 12.7776 13.9405V4.05945C12.7776 3.47525 12.2928 3 11.6966 3H10.8286ZM1.64424 2.09873V12.3457C1.64424 12.5889 1.85243 12.8 2.12372 12.8H9.65366C9.92495 12.8 10.1331 12.5889 10.1331 12.3457V2.09873C10.1331 1.85556 9.92496 1.64444 9.65366 1.64444H2.12372C1.85242 1.64444 1.64424 1.85556 1.64424 2.09873ZM11.6966 14.3556C11.9436 14.3556 12.1331 14.1628 12.1331 13.9405V4.05945C12.1331 3.83715 11.9436 3.64443 11.6966 3.64443H10.9776V12.3457C10.9776 13.0663 10.3796 13.6444 9.65366 13.6444H4.08868V13.9405C4.08868 14.1628 4.27818 14.3556 4.5252 14.3556H11.6966ZM10.7776 3.43415C10.7819 3.4352 10.7862 3.43639 10.7905 3.43758C10.8028 3.44101 10.8151 3.44443 10.8286 3.44443H11.6966C12.0476 3.44443 12.3331 3.72025 12.3331 4.05945V13.9405C12.3331 14.2797 12.0476 14.5556 11.6966 14.5556H4.5252C4.17428 14.5556 3.88868 14.2797 3.88868 13.9405V13.4444H9.65366C10.2734 13.4444 10.7776 12.9516 10.7776 12.3457V3.43415ZM1.44424 2.09873V12.3457C1.44424 12.7064 1.74915 13 2.12372 13H9.65366C10.0282 13 10.3331 12.7064 10.3331 12.3457V2.09873C10.3331 1.73805 10.0282 1.44444 9.65366 1.44444H2.12372C1.74915 1.44444 1.44424 1.73805 1.44424 2.09873Z"  fill="currentColor"/>
<path d="M8.333 3.8889H3.44411C3.32129 3.8889 3.22189 3.98828 3.22189 4.11111C3.22189 4.23396 3.32129 4.33333 3.44411 4.33333H8.333C8.45583 4.33333 8.55523 4.23396 8.55523 4.11111C8.55523 3.98828 8.45583 3.8889 8.333 3.8889Z"  fill="currentColor"/>
<path fill-rule="evenodd" clip-rule="evenodd" d="M3.44411 3.6889H8.333C8.56626 3.6889 8.75523 3.8778 8.75523 4.11111C8.75523 4.34443 8.56627 4.53333 8.333 4.53333H3.44411C3.21084 4.53333 3.02189 4.34443 3.02189 4.11111C3.02189 3.8778 3.21086 3.6889 3.44411 3.6889ZM3.44411 3.8889H8.333C8.45583 3.8889 8.55523 3.98828 8.55523 4.11111C8.55523 4.23396 8.45583 4.33333 8.333 4.33333H3.44411C3.32129 4.33333 3.22189 4.23396 3.22189 4.11111C3.22189 3.98828 3.32129 3.8889 3.44411 3.8889Z"  fill="currentColor"/>
<path d="M8.333 5.66667H3.44411C3.32129 5.66667 3.22189 5.76605 3.22189 5.88888C3.22189 6.01171 3.32129 6.1111 3.44411 6.1111H8.333C8.45583 6.1111 8.55523 6.01171 8.55523 5.88888C8.55523 5.76605 8.45583 5.66667 8.333 5.66667Z"  fill="currentColor"/>
<path fill-rule="evenodd" clip-rule="evenodd" d="M3.44411 5.46667H8.333C8.56626 5.46667 8.75523 5.65557 8.75523 5.88888C8.75523 6.12216 8.56629 6.31111 8.333 6.31111H3.44411C3.21083 6.31111 3.02189 6.12216 3.02189 5.88888C3.02189 5.65557 3.21086 5.46667 3.44411 5.46667ZM3.44411 5.66667H8.333C8.45583 5.66667 8.55523 5.76605 8.55523 5.88888C8.55523 6.01171 8.45583 6.1111 8.333 6.1111H3.44411C3.32129 6.1111 3.22189 6.01171 3.22189 5.88888C3.22189 5.76605 3.32129 5.66667 3.44411 5.66667Z"  fill="currentColor"/>
<path d="M8.333 7.44444H3.44411C3.32129 7.44444 3.22189 7.54384 3.22189 7.66667C3.22189 7.7895 3.32129 7.8889 3.44411 7.8889H8.333C8.45583 7.8889 8.55523 7.7895 8.55523 7.66667C8.55523 7.54384 8.45583 7.44444 8.333 7.44444Z"  fill="currentColor"/>
<path fill-rule="evenodd" clip-rule="evenodd" d="M3.44411 7.24444H8.333C8.56629 7.24444 8.75523 7.43338 8.75523 7.66667C8.75523 7.89996 8.56629 8.0889 8.333 8.0889H3.44411C3.21083 8.0889 3.02189 7.89996 3.02189 7.66667C3.02189 7.43338 3.21083 7.24444 3.44411 7.24444ZM3.44411 7.44444H8.333C8.45583 7.44444 8.55523 7.54384 8.55523 7.66667C8.55523 7.7895 8.45583 7.8889 8.333 7.8889H3.44411C3.32129 7.8889 3.22189 7.7895 3.22189 7.66667C3.22189 7.54384 3.32129 7.44444 3.44411 7.44444Z"  fill="currentColor"/>
<path d="M6.11079 9.22221H3.44411C3.32129 9.22221 3.22189 9.32161 3.22189 9.44444C3.22189 9.56727 3.32129 9.66667 3.44411 9.66667H6.11079C6.23361 9.66667 6.33299 9.56727 6.33299 9.44444C6.33299 9.32161 6.23361 9.22221 6.11079 9.22221Z"  fill="currentColor"/>
<path fill-rule="evenodd" clip-rule="evenodd" d="M3.44411 9.02221H6.11079C6.3441 9.02221 6.53299 9.21118 6.53299 9.44444C6.53299 9.6777 6.3441 9.86667 6.11079 9.86667H3.44411C3.21083 9.86667 3.02189 9.67773 3.02189 9.44444C3.02189 9.21116 3.21083 9.02221 3.44411 9.02221ZM3.44411 9.22221H6.11079C6.23361 9.22221 6.33299 9.32161 6.33299 9.44444C6.33299 9.56727 6.23361 9.66667 6.11079 9.66667H3.44411C3.32129 9.66667 3.22189 9.56727 3.22189 9.44444C3.22189 9.32161 3.32129 9.22221 3.44411 9.22221Z"  fill="currentColor"/>
</svg>
