<svg viewBox="0 0 113 21" fill="none" xmlns="http://www.w3.org/2000/svg">
<path d="M25.5525 5.08521V7.31641H24.1885V9.30371H25.5525V14.3894C25.5525 16.2773 26.4377 17.0361 28.7141 17.0361C29.2471 17.0361 29.6987 16.991 29.9697 16.9277V14.9856C29.8071 15.0127 29.5632 15.0308 29.3284 15.0308C28.5515 15.0308 28.1902 14.6785 28.1902 13.9377V9.30371H29.9788V7.31641H28.1902V5.08521H25.5525ZM32.6616 20.5862C35.1367 20.5862 36.3472 19.7009 37.1782 17.2168L40.5115 7.31641H37.7292L35.6697 14.8862H35.6245L33.5649 7.31641H30.6653L34.0347 17.009C34.0527 17.0452 33.9534 17.4336 33.9534 17.4697C33.7727 18.2375 33.2939 18.5447 32.3274 18.5447C32.228 18.5447 31.7493 18.5447 31.668 18.5266V20.5591C31.7493 20.5771 32.5713 20.5862 32.6616 20.5862ZM47.1238 7.16284C45.7236 7.16284 44.6487 7.86743 44.1248 9.00562H44.0706V7.31641H41.469V20.1616H44.1067V15.374H44.1609C44.6758 16.467 45.7598 17.1536 47.1689 17.1536C49.5898 17.1536 51.0894 15.2747 51.0894 12.1582C51.0894 9.03271 49.5808 7.16284 47.1238 7.16284ZM46.2385 15.0308C44.9468 15.0308 44.0977 13.9106 44.0977 12.1582C44.0977 10.4238 44.9468 9.27661 46.2385 9.27661C47.5574 9.27661 48.3884 10.4058 48.3884 12.1582C48.3884 13.9197 47.5574 15.0308 46.2385 15.0308ZM56.7983 9.05981C57.9727 9.05981 58.7766 9.90894 58.8308 11.1465H54.7207C54.811 9.93604 55.6421 9.05981 56.7983 9.05981ZM58.8669 14.0371C58.623 14.7778 57.8823 15.2566 56.9158 15.2566C55.5698 15.2566 54.6936 14.3081 54.6936 12.926V12.7634H61.3691V11.9595C61.3691 9.01465 59.5896 7.10864 56.7712 7.10864C53.9077 7.10864 52.1011 9.11401 52.1011 12.2034C52.1011 15.3018 53.8896 17.2078 56.8706 17.2078C59.2644 17.2078 60.9988 15.9341 61.2878 14.0371H58.8669ZM62.7964 17H65.4341V11.4717C65.4341 10.198 66.1658 9.32178 67.4124 9.32178C68.6138 9.32178 69.228 10.0806 69.228 11.3271V17H71.8657V10.7671C71.8657 8.52686 70.6372 7.13574 68.4873 7.13574C67.0149 7.13574 65.958 7.82227 65.4431 9.04175H65.3889V3.96509H62.7964V17ZM77.9993 17.2078C80.926 17.2078 82.7959 15.3379 82.7959 12.1492C82.7959 9.00562 80.8989 7.10864 77.9993 7.10864C75.0996 7.10864 73.2026 9.01465 73.2026 12.1492C73.2026 15.3289 75.0725 17.2078 77.9993 17.2078ZM77.9993 15.1934C76.6985 15.1934 75.8765 14.1003 75.8765 12.1582C75.8765 10.2341 76.7166 9.12305 77.9993 9.12305C79.282 9.12305 80.113 10.2341 80.113 12.1582C80.113 14.1003 79.291 15.1934 77.9993 15.1934ZM88.6042 17.2078C91.531 17.2078 93.4009 15.3379 93.4009 12.1492C93.4009 9.00562 91.5039 7.10864 88.6042 7.10864C85.7046 7.10864 83.8076 9.01465 83.8076 12.1492C83.8076 15.3289 85.6775 17.2078 88.6042 17.2078ZM88.6042 15.1934C87.3035 15.1934 86.4814 14.1003 86.4814 12.1582C86.4814 10.2341 87.3215 9.12305 88.6042 9.12305C89.887 9.12305 90.718 10.2341 90.718 12.1582C90.718 14.1003 89.896 15.1934 88.6042 15.1934ZM97.502 11.2007H97.4658V3.96509H94.8281V17H97.4658V13.8022L98.1523 13.0615L100.926 17H103.961L100.085 11.4717L103.78 7.31641H100.79L97.502 11.2007ZM106.436 17.1084C107.24 17.1084 107.89 16.458 107.89 15.6541C107.89 14.8411 107.24 14.1997 106.436 14.1997C105.623 14.1997 104.981 14.8411 104.981 15.6541C104.981 16.458 105.623 17.1084 106.436 17.1084Z" fill="currentColor"/>
<path d="M6.77296 10.8518H12.9607V5.11142L5.71439 5.09036V0H0V7.07404H0.00658665C-0.132674 15.3994 5.76991 21.0594 12.9607 20.999V15.1849C8.63793 15.161 7.04113 13.5861 6.77296 10.8518Z" fill="currentColor"/>
</svg>

