 




<svg width="13" height="12" viewBox="0 0 13 12" fill="none" xmlns="http://www.w3.org/2000/svg">
<path   opacity="0.5" d="M9.60005 4.79995C9.60005 4.64082 9.53683 4.48821 9.42431 4.37569C9.31179 4.26317 9.15918 4.19995 9.00005 4.19995C8.84092 4.19995 8.68831 4.26317 8.57578 4.37569C8.46326 4.48821 8.40005 4.64082 8.40005 4.79995V8.15155L7.62425 7.37575C7.51109 7.26646 7.35953 7.20598 7.20221 7.20735C7.04489 7.20871 6.8944 7.27182 6.78316 7.38306C6.67191 7.49431 6.60881 7.64479 6.60744 7.80211C6.60608 7.95943 6.66655 8.11099 6.77585 8.22415L8.57585 10.0242C8.68837 10.1366 8.84095 10.1998 9.00005 10.1998C9.15915 10.1998 9.31173 10.1366 9.42425 10.0242L11.2242 8.22415C11.3335 8.11099 11.394 7.95943 11.3927 7.80211C11.3913 7.64479 11.3282 7.49431 11.2169 7.38306C11.1057 7.27182 10.9552 7.20871 10.7979 7.20735C10.6406 7.20598 10.489 7.26646 10.3758 7.37575L9.60005 8.15155V4.79995Z" fill="#545377"/>
<path opacity="0.5" d="M3.60024 7.20004C3.60024 7.35917 3.66346 7.51179 3.77598 7.62431C3.8885 7.73683 4.04111 7.80004 4.20024 7.80004C4.35937 7.80004 4.51199 7.73683 4.62451 7.62431C4.73703 7.51179 4.80024 7.35917 4.80024 7.20004V3.84844L5.57604 4.62424C5.68921 4.73354 5.84077 4.79401 5.99808 4.79265C6.1554 4.79128 6.30589 4.72818 6.41714 4.61693C6.52838 4.50569 6.59148 4.3552 6.59285 4.19788C6.59422 4.04057 6.53374 3.889 6.42444 3.77584L4.62444 1.97584C4.51193 1.86336 4.35934 1.80017 4.20024 1.80017C4.04115 1.80017 3.88856 1.86336 3.77604 1.97584L1.97604 3.77584C1.86675 3.889 1.80627 4.04057 1.80764 4.19788C1.80901 4.3552 1.87211 4.50569 1.98335 4.61693C2.0946 4.72818 2.24509 4.79128 2.4024 4.79265C2.55972 4.79401 2.71128 4.73354 2.82444 4.62424L3.60024 3.84844V7.20004Z" fill="#545377"/>
</svg>
