<svg width="262" height="55" viewBox="0 0 262 55" fill="none" xmlns="http://www.w3.org/2000/svg">
<path d="M64.7233 14.9625V20.2166H61.5532V24.8963H64.7233V36.8723C64.7233 41.3181 66.7809 43.1048 72.0711 43.1048C73.3096 43.1048 74.3595 42.9986 74.9891 42.8496V38.2762C74.6113 38.3399 74.0446 38.3826 73.4988 38.3826C71.6933 38.3826 70.8535 37.553 70.8535 35.8088V24.8963H75.0103V20.2166H70.8535V14.9625H64.7233ZM81.2454 51.4648C86.9976 51.4648 89.8108 49.3799 91.7421 43.5303L99.4887 20.2166H93.0228L88.2361 38.0423H88.1313L83.3446 20.2166H76.6057L84.4364 43.041C84.4784 43.1263 84.2475 44.0408 84.2475 44.1258C83.8275 45.934 82.7148 46.6572 80.4685 46.6572C80.2377 46.6572 79.125 46.6572 78.936 46.6147V51.4008C79.125 51.4435 81.0353 51.4648 81.2454 51.4648ZM114.856 19.855C111.602 19.855 109.104 21.5141 107.886 24.1944H107.76V20.2166H101.714V50.465H107.844V39.191H107.97C109.167 41.7649 111.686 43.3814 114.961 43.3814C120.587 43.3814 124.072 38.9569 124.072 31.6182C124.072 24.2582 120.566 19.855 114.856 19.855ZM112.799 38.3826C109.797 38.3826 107.823 35.7448 107.823 31.6182C107.823 27.534 109.797 24.8325 112.799 24.8325C115.864 24.8325 117.795 27.4916 117.795 31.6182C117.795 35.7661 115.864 38.3826 112.799 38.3826ZM137.34 24.322C140.069 24.322 141.938 26.3216 142.064 29.2358H132.512C132.722 26.3854 134.653 24.322 137.34 24.322ZM142.148 36.0427C141.581 37.7869 139.86 38.9144 137.613 38.9144C134.485 38.9144 132.449 36.6809 132.449 33.4264V33.0433H147.963V31.1501C147.963 24.2157 143.827 19.7273 137.277 19.7273C130.622 19.7273 126.424 24.4496 126.424 31.7247C126.424 39.0206 130.58 43.5091 137.508 43.5091C143.071 43.5091 147.102 40.5097 147.774 36.0427H142.148ZM151.28 43.0198H157.41V30.0017C157.41 27.0023 159.11 24.9389 162.008 24.9389C164.8 24.9389 166.227 26.7257 166.227 29.6613V43.0198H172.357V28.3424C172.357 23.067 169.502 19.7912 164.506 19.7912C161.084 19.7912 158.628 21.4078 157.431 24.2795H157.305V12.3248H151.28V43.0198ZM186.612 43.5091C193.414 43.5091 197.76 39.1058 197.76 31.597C197.76 24.1944 193.351 19.7273 186.612 19.7273C179.873 19.7273 175.465 24.2157 175.465 31.597C175.465 39.0846 179.81 43.5091 186.612 43.5091ZM186.612 38.7655C183.589 38.7655 181.679 36.1916 181.679 31.6182C181.679 27.0873 183.631 24.4709 186.612 24.4709C189.593 24.4709 191.525 27.0873 191.525 31.6182C191.525 36.1916 189.614 38.7655 186.612 38.7655ZM211.259 43.5091C218.06 43.5091 222.406 39.1058 222.406 31.597C222.406 24.1944 217.998 19.7273 211.259 19.7273C204.52 19.7273 200.111 24.2157 200.111 31.597C200.111 39.0846 204.457 43.5091 211.259 43.5091ZM211.259 38.7655C208.236 38.7655 206.325 36.1916 206.325 31.6182C206.325 27.0873 208.277 24.4709 211.259 24.4709C214.24 24.4709 216.171 27.0873 216.171 31.6182C216.171 36.1916 214.261 38.7655 211.259 38.7655ZM231.937 29.3635H231.853V12.3248H225.723V43.0198H231.853V35.4897L233.449 33.7455L239.894 43.0198H246.948L237.942 30.0017L246.528 20.2166H239.579L231.937 29.3635ZM252.7 43.2752C254.568 43.2752 256.08 41.7434 256.08 39.8502C256.08 37.9358 254.568 36.4255 252.7 36.4255C250.81 36.4255 249.32 37.9358 249.32 39.8502C249.32 41.7434 250.81 43.2752 252.7 43.2752Z" fill="white"/>
<path d="M17.4129 28.4222H33.321V13.3874L14.6913 13.3322V0H0V18.5277H0.0169339C-0.341097 40.3327 14.8341 55.1568 33.321 54.9986V39.771C22.2076 39.7081 18.1023 35.5834 17.4129 28.4222Z" fill="white"/>
</svg>
