<svg width="296" height="65" viewBox="0 0 296 65" fill="none" xmlns="http://www.w3.org/2000/svg">
<rect y="27" width="296" height="4" fill="url(#paint0_radial_122_2)"/>
<g filter="url(#filter0_d_122_2)">
<rect x="27" y="16" width="25" height="25" rx="7" fill="white"/>
<rect x="27.5" y="16.5" width="24" height="24" rx="6.5" stroke="black"/>
<rect x="27.5" y="16.5" width="24" height="24" rx="6.5" stroke="url(#paint1_radial_122_2)"/>
</g>
<g filter="url(#filter1_d_122_2)">
<rect x="136" y="16" width="26" height="25" rx="7" fill="white"/>
<rect x="136.5" y="16.5" width="25" height="24" rx="6.5" stroke="black"/>
<rect x="136.5" y="16.5" width="25" height="24" rx="6.5" stroke="url(#paint2_radial_122_2)"/>
</g>
<g filter="url(#filter2_d_122_2)">
<rect x="247" y="16" width="24" height="25" rx="7" fill="white"/>
<rect x="247.5" y="16.5" width="23" height="24" rx="6.5" stroke="black"/>
<rect x="247.5" y="16.5" width="23" height="24" rx="6.5" stroke="url(#paint3_radial_122_2)"/>
</g>
<path d="M32.9167 38C32.8633 38 32.8092 37.9905 32.7575 37.9699C32.6017 37.909 32.5 37.7641 32.5 37.6042V21.7708C32.5 20.2429 33.8083 19 35.4167 19H44.5833C44.8133 19 45 19.1773 45 19.3958C45 19.6143 44.8133 19.7917 44.5833 19.7917C43.8942 19.7917 43.3333 20.3245 43.3333 20.9792V22.5625C43.3333 22.781 43.1467 22.9583 42.9167 22.9583C42.6867 22.9583 42.5 22.781 42.5 22.5625V20.9792C42.5 20.5335 42.6558 20.1226 42.9175 19.7917H35.4167C34.2683 19.7917 33.3333 20.6799 33.3333 21.7708V36.6486L37.6217 32.5747C37.7842 32.4211 38.0467 32.4203 38.2092 32.5731C40.5042 34.7233 41.79 35.9282 42.5 36.628V33.6458C42.5 33.4273 42.6867 33.25 42.9167 33.25C43.1467 33.25 43.3333 33.4273 43.3333 33.6458L43.3308 37.6042C43.3425 37.6628 43.3242 37.7039 43.3025 37.7538C43.2267 37.9287 43.0283 38.0269 42.8358 37.9921C42.7233 37.9715 42.6292 37.909 42.5692 37.8227C42.2958 37.5297 39.7592 35.1381 37.9183 33.4115L33.2108 37.8836C33.1317 37.9596 33.025 38 32.9167 38Z" fill="black"/>
<path d="M46.25 22.1667H42.9167C42.6867 22.1667 42.5 21.9893 42.5 21.7708C42.5 21.5523 42.6867 21.375 42.9167 21.375H45.8333V20.9792C45.8333 20.3245 45.2725 19.7917 44.5833 19.7917C44.3533 19.7917 44.1667 19.6143 44.1667 19.3958C44.1667 19.1773 44.3533 19 44.5833 19C45.7317 19 46.6667 19.8882 46.6667 20.9792V21.7708C46.6667 21.9893 46.48 22.1667 46.25 22.1667Z" fill="black"/>
<path d="M42.9168 32.4583C40.3893 32.4583 38.3335 30.5053 38.3335 28.1042C38.3335 25.703 40.3893 23.75 42.9168 23.75C45.4443 23.75 47.5002 25.703 47.5002 28.1042C47.5002 30.5053 45.4443 32.4583 42.9168 32.4583ZM42.9168 24.5417C40.8493 24.5417 39.1668 26.14 39.1668 28.1042C39.1668 30.0683 40.8493 31.6667 42.9168 31.6667C44.9843 31.6667 46.6668 30.0683 46.6668 28.1042C46.6668 26.14 44.9843 24.5417 42.9168 24.5417Z" fill="black"/>
<path d="M42.0835 30.0833C41.9769 30.0833 41.8702 30.0445 41.7885 29.9677L40.1219 28.3844C39.9594 28.23 39.9594 27.9791 40.1219 27.8247C40.2844 27.6703 40.5485 27.6703 40.711 27.8247L42.0827 29.1278L45.121 26.2414C45.2835 26.087 45.5477 26.087 45.7102 26.2414C45.8727 26.3957 45.8727 26.6467 45.7102 26.8011L42.3769 29.9677C42.2969 30.0445 42.1902 30.0833 42.0835 30.0833Z" fill="black"/>
<g clip-path="url(#clip0_122_2)">
<path d="M148.853 35.6638H142.77C142.115 35.6638 141.583 35.131 141.583 34.4763V22.591C141.914 22.842 142.323 22.9971 142.77 22.9971H153.458V28.143C153.458 28.3615 153.635 28.5388 153.854 28.5388C154.072 28.5388 154.249 28.3615 154.249 28.143V22.6013C154.249 22.587 154.243 22.576 154.241 22.5625C154.241 22.5546 154.238 22.5475 154.237 22.5395C154.226 22.4778 154.203 22.4224 154.169 22.3741C154.164 22.367 154.165 22.3575 154.159 22.3503C154.156 22.3464 153.854 21.9505 153.854 21.018C153.854 20.0877 154.154 19.6919 154.154 19.6919C154.255 19.5755 154.277 19.4101 154.213 19.2692C154.149 19.1282 154.008 19.0388 153.854 19.0388H142.77C141.679 19.0388 140.791 19.9262 140.791 21.018V34.4763C140.791 35.568 141.679 36.4555 142.77 36.4555H148.853C149.071 36.4555 149.248 36.2781 149.248 36.0596C149.248 35.8411 149.071 35.6638 148.853 35.6638ZM142.77 19.8305H153.227C153.162 20.0363 153.117 20.3142 153.09 20.6277C153.08 20.6269 153.071 20.6221 153.062 20.6221H142.77C142.552 20.6221 142.374 20.7995 142.374 21.018C142.374 21.2365 142.552 21.4138 142.77 21.4138H153.062C153.072 21.4138 153.08 21.409 153.09 21.4082C153.116 21.7225 153.162 21.9996 153.227 22.2055H142.77C142.115 22.2055 141.583 21.6727 141.583 21.018C141.583 20.3632 142.115 19.8305 142.77 19.8305ZM157.963 32.2945C157.927 32.19 157.851 32.1052 157.75 32.0601C157.65 32.015 157.535 32.0134 157.433 32.057C157.244 32.1353 157.037 32.0728 156.939 31.9034C156.842 31.734 156.89 31.5218 157.054 31.3983C157.143 31.3318 157.199 31.232 157.21 31.122C157.221 31.012 157.186 30.9027 157.114 30.8204C156.467 30.0865 155.636 29.6004 154.708 29.416C154.599 29.3922 154.484 29.4199 154.395 29.4856C154.305 29.5521 154.248 29.6527 154.236 29.7643C154.215 29.9685 154.051 30.1221 153.854 30.1221C153.658 30.1221 153.493 29.9685 153.473 29.7643C153.461 29.6527 153.403 29.5521 153.314 29.4856C153.223 29.4199 153.109 29.393 153.001 29.416C152.073 29.6004 151.241 30.0857 150.595 30.8204C150.522 30.9035 150.487 31.012 150.498 31.122C150.51 31.232 150.567 31.3318 150.654 31.3983C150.819 31.5226 150.867 31.734 150.769 31.9034C150.671 32.0728 150.464 32.1353 150.275 32.057C150.173 32.0134 150.057 32.0142 149.959 32.0601C149.858 32.1052 149.781 32.19 149.746 32.2945C149.58 32.7821 149.499 33.2373 149.499 33.6846C149.499 34.1319 149.58 34.5871 149.745 35.0748C149.78 35.1793 149.857 35.264 149.958 35.3091C150.058 35.3542 150.173 35.3558 150.274 35.3123C150.464 35.2347 150.671 35.2965 150.768 35.4659C150.866 35.6353 150.817 35.8475 150.654 35.971C150.565 36.0375 150.509 36.1372 150.498 36.2472C150.487 36.3573 150.521 36.4665 150.594 36.5489C151.241 37.2827 152.072 37.7688 153 37.9533C153.108 37.9755 153.223 37.9493 153.313 37.8836C153.403 37.8171 153.46 37.7166 153.472 37.605C153.493 37.4007 153.656 37.2471 153.854 37.2471C154.051 37.2471 154.215 37.4007 154.235 37.6042C154.247 37.7158 154.305 37.8163 154.394 37.8828C154.463 37.9335 154.545 37.9604 154.629 37.9604C154.655 37.9604 154.681 37.958 154.708 37.9533C155.636 37.7688 156.468 37.2835 157.114 36.5489C157.186 36.4657 157.221 36.3573 157.21 36.2472C157.199 36.1372 157.142 36.0375 157.054 35.971C156.89 35.8467 156.841 35.6353 156.939 35.4659C157.037 35.2965 157.245 35.2347 157.433 35.3123C157.535 35.355 157.65 35.3535 157.75 35.3091C157.851 35.264 157.927 35.1793 157.963 35.0748C158.129 34.5871 158.209 34.1327 158.209 33.6846C158.209 33.2365 158.129 32.7821 157.963 32.2945ZM157.311 34.4897C156.897 34.4707 156.474 34.6892 156.253 35.0708C156.032 35.4524 156.054 35.9147 156.277 36.2757C155.875 36.6557 155.406 36.932 154.894 37.0904C154.696 36.7088 154.302 36.4555 153.854 36.4555C153.405 36.4555 153.011 36.7088 152.813 37.0896C152.301 36.9312 151.832 36.655 151.43 36.275C151.653 35.914 151.674 35.4516 151.454 35.07C151.234 34.6885 150.822 34.4707 150.396 34.489C150.326 34.2087 150.291 33.9435 150.291 33.6846C150.291 33.4257 150.326 33.1605 150.396 32.8795C150.822 32.9096 151.233 32.68 151.454 32.2984C151.675 31.9168 151.653 31.4545 151.43 31.0935C151.832 30.7135 152.301 30.4372 152.813 30.2789C153.011 30.6605 153.405 30.9138 153.854 30.9138C154.302 30.9138 154.696 30.6605 154.894 30.2805C155.406 30.4388 155.875 30.7151 156.277 31.0951C156.054 31.4561 156.033 31.9184 156.253 32.3C156.474 32.6816 156.896 32.9112 157.311 32.8811C157.381 33.1613 157.416 33.4257 157.416 33.6854C157.416 33.9451 157.381 34.2095 157.311 34.4897ZM153.854 31.7055C152.763 31.7055 151.874 32.5929 151.874 33.6846C151.874 34.7763 152.763 35.6638 153.854 35.6638C154.944 35.6638 155.833 34.7763 155.833 33.6846C155.833 32.5929 154.944 31.7055 153.854 31.7055ZM153.854 34.8721C153.199 34.8721 152.666 34.3393 152.666 33.6846C152.666 33.0299 153.199 32.4971 153.854 32.4971C154.508 32.4971 155.041 33.0299 155.041 33.6846C155.041 34.3393 154.508 34.8721 153.854 34.8721Z" fill="black"/>
</g>
<path d="M258.926 27.3756C258.117 27.3756 257.46 28.0064 257.46 28.7811C257.46 29.5559 258.117 30.1867 258.926 30.1867C259.735 30.1867 260.393 29.5559 260.393 28.7811C260.393 28.0064 259.735 27.3756 258.926 27.3756ZM258.926 29.6245C258.441 29.6245 258.046 29.2461 258.046 28.7811C258.046 28.3162 258.441 27.9378 258.926 27.9378C259.412 27.9378 259.806 28.3162 259.806 28.7811C259.806 29.2461 259.412 29.6245 258.926 29.6245ZM265.673 30.7489C265.67 30.7489 265.668 30.7506 265.665 30.7506C265.565 30.56 265.453 30.3655 265.326 30.1648C265.068 29.7594 264.758 29.3462 264.412 28.9307C264.824 28.5742 265.201 28.2144 265.524 27.854C266.731 26.5114 267.134 25.3117 266.66 24.4756C266.186 23.6396 264.915 23.3113 263.085 23.5491C262.692 23.6002 262.281 23.679 261.859 23.7773C261.233 21.5245 260.164 20.0667 258.926 20.0667C258.46 20.0667 258.018 20.2798 257.614 20.6587C257.564 20.6452 257.514 20.6289 257.46 20.6289C257.136 20.6289 256.873 20.8808 256.873 21.1911C256.873 21.294 256.909 21.3845 256.96 21.4677C256.669 21.9299 256.41 22.4938 256.19 23.1403C254.242 22.4668 252.663 22.4792 251.978 23.3248C251.369 24.0753 251.563 25.3223 252.526 26.8353C252.784 27.2412 253.094 27.655 253.441 28.071C253.029 28.4269 252.653 28.7867 252.33 29.1466C251.123 30.4892 250.719 31.6889 251.194 32.525C251.293 32.7004 251.429 32.8516 251.597 32.9815C251.597 32.9871 251.593 32.9922 251.593 32.9984C251.593 33.3087 251.856 33.5606 252.18 33.5606C252.332 33.5606 252.467 33.5015 252.572 33.4105C252.898 33.4852 253.265 33.5268 253.679 33.5268C254.015 33.5268 254.38 33.5021 254.769 33.4515C255.161 33.3998 255.572 33.3211 255.994 33.2227C256.619 35.4755 257.688 36.9333 258.926 36.9333C260.043 36.9333 261.022 35.7465 261.663 33.8602C262.572 34.1745 263.401 34.3404 264.097 34.3404C264.89 34.3404 265.509 34.1256 265.874 33.6753C266.258 33.2013 266.321 32.5295 266.074 31.7176C266.187 31.6153 266.26 31.4719 266.26 31.3111C266.26 31.0008 265.997 30.7489 265.673 30.7489ZM263.163 24.1062C264.714 23.9038 265.8 24.1366 266.144 24.7438C266.488 25.3504 266.1 26.3506 265.079 27.4869C264.776 27.8242 264.425 28.1621 264.039 28.4966C263.548 27.9518 262.992 27.4082 262.382 26.8791C262.311 25.9621 262.178 25.1036 261.996 24.3238C262.398 24.2299 262.79 24.1546 263.163 24.1062ZM262.43 27.6927C262.851 28.0806 263.244 28.473 263.598 28.8666C263.228 29.1634 262.829 29.4552 262.406 29.7397C262.43 29.3349 262.446 28.9234 262.446 28.5C262.446 28.2268 262.44 27.9586 262.43 27.6927ZM261.744 26.3461C261.529 26.1741 261.309 26.0037 261.085 25.8368C260.675 25.5309 260.264 25.2498 259.854 24.985C260.393 24.7809 260.922 24.6089 261.435 24.4678C261.567 25.0412 261.671 25.6703 261.744 26.3461ZM257.457 21.7528C257.457 21.7528 257.459 21.7533 257.46 21.7533C257.784 21.7533 258.046 21.5015 258.046 21.1911C258.046 21.1433 258.03 21.1012 258.018 21.0568C258.315 20.7824 258.622 20.6289 258.926 20.6289C259.809 20.6289 260.73 21.8568 261.299 23.9207C260.638 24.1012 259.954 24.3334 259.258 24.6128C258.386 24.0883 257.532 23.6598 256.729 23.3411C256.941 22.7069 257.189 22.1773 257.457 21.7528ZM256.565 23.8825C257.206 24.1411 257.891 24.4706 258.609 24.8849C258.155 25.0845 257.7 25.2998 257.247 25.5354C256.862 25.7361 256.491 25.947 256.128 26.1623C256.227 25.3212 256.377 24.5566 256.565 23.8825ZM253.027 26.5429C252.213 25.2622 251.999 24.2153 252.441 23.67C252.687 23.3669 253.145 23.2129 253.764 23.2129C254.376 23.2129 255.148 23.3686 256.024 23.675C255.779 24.5274 255.601 25.4977 255.501 26.5485C254.921 26.9196 254.376 27.3053 253.882 27.7005C253.558 27.3104 253.269 26.9224 253.027 26.5429ZM255.423 29.3085C255.001 28.9206 254.607 28.527 254.254 28.1334C254.624 27.8366 255.023 27.5442 255.447 27.2592C255.423 27.6646 255.406 28.0767 255.406 28.5C255.406 28.7733 255.413 29.0426 255.423 29.3085ZM254.689 32.8932C253.911 32.995 253.25 32.9865 252.741 32.8764C252.681 32.6262 252.459 32.4356 252.18 32.4356C252.085 32.4356 251.998 32.4626 251.919 32.5008C251.834 32.4266 251.76 32.3467 251.709 32.2557C251.364 31.649 251.753 30.6488 252.773 29.5126C253.076 29.1758 253.428 28.8379 253.813 28.5034C254.303 29.0482 254.86 29.5924 255.47 30.122C255.542 31.0384 255.674 31.8964 255.856 32.6756C255.454 32.7695 255.063 32.8449 254.689 32.8932ZM256.109 30.6545C256.323 30.8265 256.542 30.9963 256.766 31.1633C257.178 31.4697 257.589 31.7491 257.999 32.0145C257.46 32.2186 256.931 32.3906 256.417 32.5323C256.286 31.9588 256.182 31.3297 256.109 30.6545ZM258.926 36.3711C258.044 36.3711 257.123 35.1432 256.554 33.0799C257.215 32.8994 257.9 32.6672 258.597 32.3872C259.47 32.9123 260.321 33.334 261.126 33.6528C260.553 35.3687 259.724 36.3711 258.926 36.3711ZM261.286 33.1226C260.645 32.864 259.959 32.5306 259.241 32.1168C259.696 31.9172 260.152 31.7007 260.607 31.4646C260.991 31.2645 261.362 31.0536 261.725 30.8389C261.625 31.6816 261.475 32.4479 261.286 33.1226ZM260.326 30.9699C259.765 31.2617 259.202 31.5225 258.644 31.7558C258.147 31.4461 257.64 31.1025 257.126 30.7197C256.747 30.438 256.387 30.1473 256.041 29.8533C256.012 29.417 255.993 28.9683 255.993 28.5C255.993 27.9316 256.016 27.3868 256.058 26.8662C256.525 26.5755 257.016 26.295 257.526 26.0296C258.084 25.7389 258.645 25.4798 259.2 25.247C259.7 25.559 260.208 25.8947 260.726 26.2809C261.105 26.5626 261.465 26.8533 261.812 27.1479C261.84 27.5836 261.86 28.0317 261.86 28.5C261.86 29.0684 261.837 29.6127 261.795 30.1327C261.328 30.4234 260.837 30.7039 260.326 30.9699ZM265.411 33.3306C264.922 33.9333 263.589 33.9463 261.827 33.3289C262.073 32.4761 262.251 31.5045 262.352 30.4526C262.932 30.0815 263.477 29.6959 263.971 29.3012C264.294 29.6908 264.584 30.0787 264.825 30.4582C264.955 30.6623 265.063 30.8585 265.163 31.0497C265.118 31.129 265.086 31.2155 265.086 31.3117C265.086 31.563 265.262 31.7688 265.499 31.8402C265.702 32.4811 265.679 32.9995 265.411 33.3306Z" fill="black"/>
<defs>
<filter id="filter0_d_122_2" x="7" y="0" width="65" height="65" filterUnits="userSpaceOnUse" color-interpolation-filters="sRGB">
<feFlood flood-opacity="0" result="BackgroundImageFix"/>
<feColorMatrix in="SourceAlpha" type="matrix" values="0 0 0 0 0 0 0 0 0 0 0 0 0 0 0 0 0 0 127 0" result="hardAlpha"/>
<feOffset dy="4"/>
<feGaussianBlur stdDeviation="10"/>
<feComposite in2="hardAlpha" operator="out"/>
<feColorMatrix type="matrix" values="0 0 0 0 0 0 0 0 0 0 0 0 0 0 0 0 0 0 0.1 0"/>
<feBlend mode="normal" in2="BackgroundImageFix" result="effect1_dropShadow_122_2"/>
<feBlend mode="normal" in="SourceGraphic" in2="effect1_dropShadow_122_2" result="shape"/>
</filter>
<filter id="filter1_d_122_2" x="116" y="0" width="66" height="65" filterUnits="userSpaceOnUse" color-interpolation-filters="sRGB">
<feFlood flood-opacity="0" result="BackgroundImageFix"/>
<feColorMatrix in="SourceAlpha" type="matrix" values="0 0 0 0 0 0 0 0 0 0 0 0 0 0 0 0 0 0 127 0" result="hardAlpha"/>
<feOffset dy="4"/>
<feGaussianBlur stdDeviation="10"/>
<feComposite in2="hardAlpha" operator="out"/>
<feColorMatrix type="matrix" values="0 0 0 0 0 0 0 0 0 0 0 0 0 0 0 0 0 0 0.1 0"/>
<feBlend mode="normal" in2="BackgroundImageFix" result="effect1_dropShadow_122_2"/>
<feBlend mode="normal" in="SourceGraphic" in2="effect1_dropShadow_122_2" result="shape"/>
</filter>
<filter id="filter2_d_122_2" x="227" y="0" width="64" height="65" filterUnits="userSpaceOnUse" color-interpolation-filters="sRGB">
<feFlood flood-opacity="0" result="BackgroundImageFix"/>
<feColorMatrix in="SourceAlpha" type="matrix" values="0 0 0 0 0 0 0 0 0 0 0 0 0 0 0 0 0 0 127 0" result="hardAlpha"/>
<feOffset dy="4"/>
<feGaussianBlur stdDeviation="10"/>
<feComposite in2="hardAlpha" operator="out"/>
<feColorMatrix type="matrix" values="0 0 0 0 0 0 0 0 0 0 0 0 0 0 0 0 0 0 0.1 0"/>
<feBlend mode="normal" in2="BackgroundImageFix" result="effect1_dropShadow_122_2"/>
<feBlend mode="normal" in="SourceGraphic" in2="effect1_dropShadow_122_2" result="shape"/>
</filter>
<radialGradient id="paint0_radial_122_2" cx="0" cy="0" r="1" gradientUnits="userSpaceOnUse" gradientTransform="translate(17.1594 29.0015) scale(268.2 19.9334)">
<stop stop-color="#8165C3"/>
<stop offset="0.135417" stop-color="#7279C9"/>
<stop offset="0.276042" stop-color="#6FA9E1"/>
<stop offset="0.401042" stop-color="#42B6EB"/>
<stop offset="0.546875" stop-color="#9DBAB9"/>
<stop offset="0.692708" stop-color="#E9AC90"/>
<stop offset="0.848958" stop-color="#F0878D"/>
<stop offset="0.984375" stop-color="#E8367A"/>
</radialGradient>
<radialGradient id="paint1_radial_122_2" cx="0" cy="0" r="1" gradientUnits="userSpaceOnUse" gradientTransform="translate(28.4493 28.5093) scale(22.652 124.584)">
<stop stop-color="#63277C"/>
<stop offset="0.135417" stop-color="#515993"/>
<stop offset="0.276042" stop-color="#5293B9"/>
<stop offset="0.401042" stop-color="#2B7CA1"/>
<stop offset="0.546875" stop-color="#958B7C"/>
<stop offset="0.692708" stop-color="#AB7265"/>
<stop offset="0.848958" stop-color="#C55C70"/>
<stop offset="0.984375" stop-color="#AE285B"/>
</radialGradient>
<radialGradient id="paint2_radial_122_2" cx="0" cy="0" r="1" gradientUnits="userSpaceOnUse" gradientTransform="translate(137.507 28.5093) scale(23.5581 124.584)">
<stop stop-color="#63277C"/>
<stop offset="0.135417" stop-color="#515993"/>
<stop offset="0.276042" stop-color="#5293B9"/>
<stop offset="0.401042" stop-color="#2B7CA1"/>
<stop offset="0.546875" stop-color="#958B7C"/>
<stop offset="0.692708" stop-color="#AB7265"/>
<stop offset="0.848958" stop-color="#C55C70"/>
<stop offset="0.984375" stop-color="#AE285B"/>
</radialGradient>
<radialGradient id="paint3_radial_122_2" cx="0" cy="0" r="1" gradientUnits="userSpaceOnUse" gradientTransform="translate(248.391 28.5093) scale(21.7459 124.584)">
<stop stop-color="#63277C"/>
<stop offset="0.135417" stop-color="#515993"/>
<stop offset="0.276042" stop-color="#5293B9"/>
<stop offset="0.401042" stop-color="#2B7CA1"/>
<stop offset="0.546875" stop-color="#958B7C"/>
<stop offset="0.692708" stop-color="#AB7265"/>
<stop offset="0.848958" stop-color="#C55C70"/>
<stop offset="0.984375" stop-color="#AE285B"/>
</radialGradient>
<clipPath id="clip0_122_2">
<rect width="19" height="19" fill="white" transform="translate(140 19)"/>
</clipPath>
</defs>
</svg>
